<svg width="20" height="16" viewBox="0 0 20 16" fill="none" xmlns="http://www.w3.org/2000/svg">
<path d="M13.9999 15.1501V13.5612C13.9999 12.7184 13.6628 11.9101 13.0627 11.3142C12.4626 10.7182 11.6486 10.3834 10.7999 10.3834H4.39994C3.55125 10.3834 2.73732 10.7182 2.13721 11.3142C1.53709 11.9101 1.19995 12.7184 1.19995 13.5612V15.1501M18.7999 15.1492V13.5604C18.7994 12.8563 18.5634 12.1723 18.129 11.6158C17.6946 11.0593 17.0864 10.6619 16.3999 10.4859M13.1999 0.952507C13.8882 1.12752 14.4983 1.52506 14.934 2.08245C15.3697 2.63984 15.6062 3.32538 15.6062 4.03098C15.6062 4.73658 15.3697 5.42211 14.934 5.9795C14.4983 6.53689 13.8882 6.93443 13.1999 7.10945M10.8 4.02788C10.8 5.78291 9.36735 7.20565 7.60004 7.20565C5.83273 7.20565 4.40005 5.78291 4.40005 4.02788C4.40005 2.27284 5.83273 0.850098 7.60004 0.850098C9.36735 0.850098 10.8 2.27284 10.8 4.02788Z" stroke="currentColor" stroke-linecap="round" stroke-linejoin="round"/>
</svg>
