<svg width="18" height="16" viewBox="0 0 18 16" fill="none" xmlns="http://www.w3.org/2000/svg">
<path d="M12.08 14.9301V2.61007C12.08 2.20163 11.9178 1.80993 11.629 1.52112C11.3402 1.23232 10.9485 1.07007 10.54 1.07007H7.46005C7.05161 1.07007 6.65991 1.23232 6.3711 1.52112C6.0823 1.80993 5.92005 2.20163 5.92005 2.61007V14.9301M2.84005 4.15008H15.16C16.0106 4.15008 16.7 4.83956 16.7 5.69008V13.3901C16.7 14.2406 16.0106 14.9301 15.16 14.9301H2.84005C1.98953 14.9301 1.30005 14.2406 1.30005 13.3901V5.69008C1.30005 4.83956 1.98953 4.15008 2.84005 4.15008Z" stroke="currentColor" stroke-linecap="round" stroke-linejoin="round"/>
</svg>
