<svg width="14" height="18" viewBox="0 0 14 18" fill="none" xmlns="http://www.w3.org/2000/svg">
<path d="M8.53996 1.2998H2.37997C1.97153 1.2998 1.57983 1.46205 1.29102 1.75086C1.00222 2.03967 0.839966 2.43137 0.839966 2.8398V15.1598C0.839966 15.5682 1.00222 15.9599 1.29102 16.2487C1.57983 16.5376 1.97153 16.6998 2.37997 16.6998H11.62C12.0284 16.6998 12.4201 16.5376 12.7089 16.2487C12.9977 15.9599 13.16 15.5682 13.16 15.1598V5.9198M8.53996 1.2998L13.16 5.9198M8.53996 1.2998L8.54 5.9198H13.16M10.08 9.76977H3.92M10.08 12.8498H3.92M5.46 6.68978H3.92" stroke="currentColor" stroke-linecap="round" stroke-linejoin="round"/>
</svg>
