<svg width="18" height="18" viewBox="0 0 18 18" fill="none" xmlns="http://www.w3.org/2000/svg">
<path d="M9.00001 11.0998C10.1598 11.0998 11.1 10.1596 11.1 8.99982C11.1 7.84002 10.1598 6.89982 9.00001 6.89982C7.84022 6.89982 6.90001 7.84002 6.90001 8.99982C6.90001 10.1596 7.84022 11.0998 9.00001 11.0998Z" stroke="currentColor" stroke-linecap="round" stroke-linejoin="round"/>
<path d="M14.18 11.0998C14.0869 11.3109 14.0591 11.5451 14.1002 11.7722C14.1414 11.9993 14.2497 12.2088 14.411 12.3738L14.453 12.4158C14.5832 12.5458 14.6865 12.7002 14.7569 12.8702C14.8274 13.0401 14.8636 13.2223 14.8636 13.4063C14.8636 13.5903 14.8274 13.7725 14.7569 13.9424C14.6865 14.1124 14.5832 14.2668 14.453 14.3968C14.323 14.527 14.1686 14.6302 13.9987 14.7007C13.8287 14.7711 13.6465 14.8074 13.4625 14.8074C13.2786 14.8074 13.0964 14.7711 12.9264 14.7007C12.7565 14.6302 12.6021 14.527 12.472 14.3968L12.43 14.3548C12.2651 14.1934 12.0555 14.0852 11.8285 14.044C11.6014 14.0028 11.3672 14.0306 11.156 14.1238C10.949 14.2125 10.7724 14.3599 10.6481 14.5477C10.5237 14.7355 10.4569 14.9556 10.456 15.1808V15.2998C10.456 15.6711 10.3085 16.0272 10.046 16.2898C9.78345 16.5523 9.42735 16.6998 9.05605 16.6998C8.68475 16.6998 8.32865 16.5523 8.0661 16.2898C7.80355 16.0272 7.65605 15.6711 7.65605 15.2998V15.2368C7.65063 15.0051 7.57563 14.7804 7.44081 14.5919C7.30598 14.4034 7.11756 14.2598 6.90005 14.1798C6.68892 14.0866 6.45471 14.0588 6.22764 14.1C6.00056 14.1412 5.79102 14.2494 5.62605 14.4108L5.58405 14.4528C5.45403 14.583 5.29962 14.6862 5.12966 14.7567C4.95971 14.8271 4.77753 14.8634 4.59355 14.8634C4.40957 14.8634 4.22739 14.8271 4.05743 14.7567C3.88747 14.6862 3.73307 14.583 3.60305 14.4528C3.47288 14.3228 3.36962 14.1684 3.29917 13.9984C3.22871 13.8285 3.19245 13.6463 3.19245 13.4623C3.19245 13.2783 3.22871 13.0961 3.29917 12.9262C3.36962 12.7562 3.47288 12.6018 3.60305 12.4718L3.64505 12.4298C3.80642 12.2648 3.91468 12.0553 3.95585 11.8282C3.99702 11.6011 3.96923 11.3669 3.87605 11.1558C3.78731 10.9488 3.63998 10.7722 3.45217 10.6478C3.26437 10.5234 3.0443 10.4567 2.81905 10.4558H2.70005C2.32875 10.4558 1.97265 10.3083 1.7101 10.0458C1.44755 9.7832 1.30005 9.42711 1.30005 9.0558C1.30005 8.6845 1.44755 8.32841 1.7101 8.06585C1.97265 7.8033 2.32875 7.6558 2.70005 7.6558H2.76305C2.99474 7.65038 3.21945 7.57539 3.40796 7.44056C3.59646 7.30574 3.74005 7.11732 3.82005 6.8998C3.91323 6.68867 3.94103 6.45447 3.89985 6.22739C3.85868 6.00032 3.75042 5.79078 3.58905 5.6258L3.54705 5.5838C3.41688 5.45378 3.31362 5.29938 3.24317 5.12942C3.17271 4.95946 3.13645 4.77729 3.13645 4.5933C3.13645 4.40932 3.17271 4.22715 3.24317 4.05719C3.31362 3.88723 3.41688 3.73283 3.54705 3.6028C3.67707 3.47264 3.83147 3.36937 4.00143 3.29892C4.17139 3.22847 4.35357 3.1922 4.53755 3.1922C4.72153 3.1922 4.90371 3.22847 5.07366 3.29892C5.24362 3.36937 5.39803 3.47264 5.52805 3.6028L5.57005 3.6448C5.73502 3.80618 5.94456 3.91443 6.17164 3.95561C6.39871 3.99678 6.63292 3.96898 6.84405 3.8758H6.90005C7.10709 3.78707 7.28366 3.63973 7.40803 3.45193C7.53241 3.26413 7.59915 3.04406 7.60005 2.8188V2.6998C7.60005 2.3285 7.74755 1.97241 8.0101 1.70986C8.27265 1.4473 8.62875 1.2998 9.00005 1.2998C9.37135 1.2998 9.72745 1.4473 9.99 1.70986C10.2525 1.97241 10.4 2.3285 10.4 2.6998V2.7628C10.4009 2.98806 10.4677 3.20813 10.5921 3.39593C10.7164 3.58373 10.893 3.73107 11.1 3.8198C11.3112 3.91299 11.5454 3.94078 11.7725 3.89961C11.9995 3.85843 12.2091 3.75018 12.374 3.5888L12.416 3.5468C12.5461 3.41664 12.7005 3.31337 12.8704 3.24292C13.0404 3.17247 13.2226 3.1362 13.4065 3.1362C13.5905 3.1362 13.7727 3.17247 13.9427 3.24292C14.1126 3.31337 14.267 3.41664 14.397 3.5468C14.5272 3.67683 14.6305 3.83123 14.7009 4.00119C14.7714 4.17115 14.8076 4.35332 14.8076 4.5373C14.8076 4.72129 14.7714 4.90346 14.7009 5.07342C14.6305 5.24338 14.5272 5.39778 14.397 5.5278L14.355 5.5698C14.1937 5.73478 14.0854 5.94432 14.0442 6.17139C14.0031 6.39847 14.0309 6.63267 14.124 6.8438V6.8998C14.2128 7.10684 14.3601 7.28342 14.5479 7.40779C14.7357 7.53216 14.9558 7.59891 15.181 7.5998H15.3C15.6713 7.5998 16.0274 7.7473 16.29 8.00985C16.5525 8.27241 16.7 8.6285 16.7 8.9998C16.7 9.37111 16.5525 9.7272 16.29 9.98975C16.0274 10.2523 15.6713 10.3998 15.3 10.3998H15.237C15.0118 10.4007 14.7917 10.4674 14.6039 10.5918C14.4161 10.7162 14.2688 10.8928 14.18 11.0998Z" stroke="currentColor" stroke-linecap="round" stroke-linejoin="round"/>
</svg>
