<svg
    width="14"
    height="14"
    viewBox="0 0 14 14"
    fill="none"
    xmlns="http://www.w3.org/2000/svg"
    >
    <path
        d="M12.9434 6.60707L7.32525 12.2253C6.63698 12.9135 5.70348 13.3002 4.73012 13.3002C3.75676 13.3002 2.82327 12.9135 2.13499 12.2253C1.44672 11.537 1.06006 10.6035 1.06006 9.63013C1.06006 8.65677 1.44672 7.72328 2.13499 7.03501L7.75318 1.41682C8.21203 0.957973 8.83436 0.700195 9.48327 0.700195C10.1322 0.700195 10.7545 0.957973 11.2134 1.41682C11.6722 1.87567 11.93 2.498 11.93 3.1469C11.93 3.79581 11.6722 4.41814 11.2134 4.87699L5.58905 10.4952C5.35963 10.7246 5.04846 10.8535 4.72401 10.8535C4.39955 10.8535 4.08839 10.7246 3.85897 10.4952C3.62954 10.2658 3.50065 9.95459 3.50065 9.63013C3.50065 9.30568 3.62954 8.99451 3.85897 8.76509L9.04922 3.58095"
        stroke="#0E1952"
        stroke-linecap="round"
        stroke-linejoin="round"
    />
    </svg>