<svg width="24" height="22" viewBox="0 0 24 22" fill="none" xmlns="http://www.w3.org/2000/svg">
<path d="M22.3349 9.67233C23.1709 9.67233 23.5199 8.619 22.8408 8.13346L12.5084 0.762783C12.3608 0.656765 12.1827 0.599609 11.9997 0.599609C11.8168 0.599609 11.6387 0.656765 11.4911 0.762783L1.15868 8.13346C0.479593 8.61634 0.828606 9.67233 1.66732 9.67233H3.34204L3.34204 19.5954H1.39406C1.27502 19.5954 1.17762 19.6909 1.17762 19.8077V21.1874C1.17762 21.3041 1.27502 21.3996 1.39406 21.3996H22.6054C22.7245 21.3996 22.8219 21.3041 22.8219 21.1874V19.8077C22.8219 19.6909 22.7245 19.5954 22.6054 19.5954H20.6574V9.67233L22.3349 9.67233ZM11.9997 2.63331L19.3344 7.86548L4.66505 7.86548L11.9997 2.63331ZM5.29002 9.67233H8.45549V19.5954H5.29002L5.29002 9.67233ZM10.4035 9.67233H13.5689V19.5954H10.4035V9.67233ZM18.7095 19.5954H15.5169V9.67233H18.7095V19.5954Z" fill="currentColor" />
</svg>
