<svg width="20" height="24" viewBox="0 0 20 24" fill="none" xmlns="http://www.w3.org/2000/svg">
<path d="M12.24 0.800781L3.28004 0.800781C2.68595 0.800781 2.1162 1.03678 1.69612 1.45686C1.27604 1.87694 1.04004 2.4467 1.04004 3.04078L1.04004 20.9608C1.04004 21.5549 1.27604 22.1246 1.69612 22.5447C2.1162 22.9648 2.68595 23.2008 3.28004 23.2008H16.72C17.3141 23.2008 17.8839 22.9648 18.304 22.5447C18.724 22.1246 18.96 21.5549 18.96 20.9608V7.52078M12.24 0.800781L18.96 7.52078M12.24 0.800781L12.2401 7.52078H18.96M14.4801 13.1207H5.52009M14.4801 17.6008H5.52009M7.76009 8.64075H5.52009" stroke="currentColor" stroke-linecap="round" stroke-linejoin="round"/>
</svg>
