<svg width="12" height="19" viewBox="0 0 12 19" fill="none" xmlns="http://www.w3.org/2000/svg">
<path d="M6.68751 12.451L6.25001 12.5061V12.9471V14.4996V14.9996H6.75001H10V15.4996H6.75001H6.25001V15.9996V18.4996H5.75001V15.9996V15.4996H5.25001H2.00001V14.9996H5.25001H5.75001V14.4996V12.9471V12.5061L5.31251 12.451C3.92441 12.2761 2.65514 11.5788 1.76307 10.501C0.870998 9.42326 0.42319 8.04604 0.510804 6.64971C0.598417 5.25339 1.21487 3.94294 2.23466 2.98513C3.25446 2.02732 4.60094 1.49414 6.00001 1.49414C7.39908 1.49414 8.74556 2.02732 9.76535 2.98513C10.7851 3.94294 11.4016 5.25339 11.4892 6.64971C11.5768 8.04604 11.129 9.42326 10.2369 10.501C9.34488 11.5788 8.0756 12.2761 6.68751 12.451ZM1.00001 6.99958L1.00001 7.00016C1.00155 8.32562 1.52877 9.59634 2.46601 10.5336C3.40325 11.4708 4.67397 11.998 5.99943 11.9996H6.00001C6.98891 11.9996 7.95561 11.7063 8.77786 11.1569C9.60011 10.6075 10.241 9.82663 10.6194 8.913C10.9978 7.99937 11.0969 6.99403 10.9039 6.02413C10.711 5.05422 10.2348 4.16331 9.53554 3.46405C8.83628 2.76478 7.94537 2.28858 6.97546 2.09565C6.00555 1.90273 5.00022 2.00175 4.08659 2.38018C3.17296 2.75862 2.39207 3.39948 1.84266 4.22173C1.29325 5.04398 1.00001 6.01067 1.00001 6.99958Z" fill="#1C1C1C" stroke="#888888"/>
</svg>
