<svg width="24" height="18" viewBox="0 0 24 18" fill="none" xmlns="http://www.w3.org/2000/svg">
<path d="M21.7998 0.599609L2.1998 0.599609C1.8285 0.599609 1.47241 0.747109 1.20986 1.00966C0.947304 1.27221 0.799805 1.62831 0.799805 1.99961L0.799805 15.9996C0.799805 16.3709 0.947304 16.727 1.20986 16.9896C1.47241 17.2521 1.8285 17.3996 2.1998 17.3996H21.7998C22.1711 17.3996 22.5272 17.2521 22.7898 16.9896C23.0523 16.727 23.1998 16.3709 23.1998 15.9996V1.99961C23.1998 1.62831 23.0523 1.27221 22.7898 1.00966C22.5272 0.747109 22.1711 0.599609 21.7998 0.599609ZM21.7998 15.9996L2.1998 15.9996L2.1998 1.99961L21.7998 1.99961V15.9996Z" fill="currentColor"/>
<path d="M5.69986 6.19966L18.2999 6.19966C18.4855 6.19966 18.6636 6.12591 18.7948 5.99464C18.9261 5.86336 18.9999 5.68531 18.9999 5.49966C18.9999 5.31401 18.9261 5.13596 18.7948 5.00469C18.6636 4.87341 18.4855 4.79966 18.2999 4.79966L5.69986 4.79966C5.5142 4.79966 5.33616 4.87341 5.20488 5.00469C5.07361 5.13596 4.99986 5.31401 4.99986 5.49966C4.99986 5.68531 5.07361 5.86336 5.20488 5.99464C5.33616 6.12591 5.5142 6.19966 5.69986 6.19966Z" fill="currentColor"/>
<path d="M5.69986 8.99898H18.2999C18.4855 8.99898 18.6636 8.92523 18.7948 8.79395C18.9261 8.66268 18.9999 8.48463 18.9999 8.29898C18.9999 8.11333 18.9261 7.93528 18.7948 7.804C18.6636 7.67273 18.4855 7.59898 18.2999 7.59898L5.69986 7.59898C5.5142 7.59898 5.33616 7.67273 5.20488 7.804C5.07361 7.93528 4.99986 8.11333 4.99986 8.29898C4.99986 8.48463 5.07361 8.66268 5.20488 8.79395C5.33616 8.92523 5.5142 8.99898 5.69986 8.99898Z" fill="currentColor"/>
<path d="M5.69986 11.8003H12.6999C12.8855 11.8003 13.0636 11.7265 13.1948 11.5953C13.3261 11.464 13.3999 11.2859 13.3999 11.1003C13.3999 10.9146 13.3261 10.7366 13.1948 10.6053C13.0636 10.474 12.8855 10.4003 12.6999 10.4003H5.69986C5.5142 10.4003 5.33616 10.474 5.20488 10.6053C5.07361 10.7366 4.99986 10.9146 4.99986 11.1003C4.99986 11.2859 5.07361 11.464 5.20488 11.5953C5.33616 11.7265 5.5142 11.8003 5.69986 11.8003Z" fill="currentColor"/>
</svg>
