<svg width="18" height="18" viewBox="0 0 18 18" fill="none" xmlns="http://www.w3.org/2000/svg">
<path d="M6.37461 7.94961C8.40111 7.94961 10.0496 9.59811 10.0496 11.6246C10.0496 13.6511 8.40111 15.2996 6.37461 15.2996C4.34811 15.2996 2.69961 13.6511 2.69961 11.6246C2.69961 9.59811 4.34811 7.94961 6.37461 7.94961ZM6.37461 5.84961C3.18261 5.84961 0.599609 8.43261 0.599609 11.6246C0.599609 14.8166 3.18261 17.3996 6.37461 17.3996C9.56661 17.3996 12.1496 14.8166 12.1496 11.6246C12.1496 10.4066 11.7716 9.28311 11.1311 8.34861L15.2996 4.19061V6.89961H17.3996V0.599609L11.0996 0.599609V2.69961H13.8086L9.64011 6.86811C8.71611 6.22761 7.59261 5.84961 6.37461 5.84961Z" fill="#0052CC"/>
</svg>
