<svg
    width="16"
    height="16"
    viewBox="0 0 16 16"
    fill="none"
    xmlns="http://www.w3.org/2000/svg"
>
    <mask id="path-1-inside-1_2235_2345" fill="white">
    <path d="M15.0558 9.77267C14.6954 9.19377 13.8303 8.97669 12.3885 8.97669C11.8838 8.97669 11.3792 8.97669 10.8746 9.04905C10.5141 8.83197 10.1537 8.61488 9.86532 8.3978C9.14442 7.8189 8.49561 6.73347 7.99098 5.43096C7.99098 5.43096 7.99098 5.3586 8.06307 5.28624C8.42352 3.76664 8.78397 1.88523 8.06307 1.08925C7.8468 0.872167 7.63053 0.799805 7.34217 0.799805H7.05381C6.62126 0.799805 6.26081 1.23398 6.11663 1.66815C5.68409 3.18774 5.97245 4.05609 6.40499 5.43096C6.11663 6.51639 5.75618 7.67418 5.10737 8.90433C4.74692 9.70031 4.31438 10.4239 4.02602 11.0028C3.59348 11.2199 3.23303 11.437 3.01676 11.5817C1.64705 12.4501 0.926145 13.4631 0.854055 14.042C0.781965 14.2591 0.781965 14.4762 0.854055 14.6209V14.6933L1.43078 15.0551C1.57496 15.1274 1.79123 15.1998 1.93541 15.1998C2.87258 15.1998 3.95393 14.1144 5.39573 11.5817C5.46782 11.5817 5.53991 11.5094 5.612 11.5094C6.83753 11.1475 8.27934 10.8581 10.2979 10.641C11.4513 11.2199 12.8931 11.5094 13.7582 11.5094C14.2628 11.5094 14.6233 11.3646 14.8395 11.1475C15.0558 10.9305 15.1279 10.641 15.2 10.3516C15.2 10.1345 15.2 9.91739 15.0558 9.77267ZM1.79123 14.4038C1.86332 13.9697 2.36795 13.1737 3.23303 12.4501C3.37721 12.3777 3.52139 12.233 3.80975 12.0882C2.94467 13.4631 2.29586 14.1867 1.79123 14.4038ZM7.1259 1.59578C7.19799 1.52342 7.19799 1.45106 7.27008 1.45106L7.41426 1.52342C7.63053 1.81287 7.63053 2.17468 7.48635 2.82594V3.04302C7.41426 3.33247 7.41426 3.62192 7.27008 3.98372C6.98172 2.8983 6.98172 2.10232 7.1259 1.59578ZM5.68409 10.7134L5.53991 10.7857C5.612 10.4239 5.90036 9.98975 6.11663 9.55558C6.62126 8.54252 7.05381 7.60182 7.27008 6.73347C7.77471 7.8189 8.35143 8.61488 9.07233 9.26614C9.21651 9.41086 9.36069 9.55558 9.57696 9.62795C8.5677 9.77267 7.19799 10.1345 5.68409 10.7134ZM14.407 10.641H14.1186C13.614 10.641 12.7489 10.4239 11.8838 10.0621C11.9559 9.91739 12.1001 9.91739 12.1722 9.91739C13.8303 9.91739 14.2628 10.2068 14.407 10.3516C14.4791 10.4239 14.4791 10.4239 14.4791 10.4963C14.4791 10.5686 14.4791 10.5686 14.407 10.641Z" />
    </mask>
    <path
    d="M15.0558 9.77267C14.6954 9.19377 13.8303 8.97669 12.3885 8.97669C11.8838 8.97669 11.3792 8.97669 10.8746 9.04905C10.5141 8.83197 10.1537 8.61488 9.86532 8.3978C9.14442 7.8189 8.49561 6.73347 7.99098 5.43096C7.99098 5.43096 7.99098 5.3586 8.06307 5.28624C8.42352 3.76664 8.78397 1.88523 8.06307 1.08925C7.8468 0.872167 7.63053 0.799805 7.34217 0.799805H7.05381C6.62126 0.799805 6.26081 1.23398 6.11663 1.66815C5.68409 3.18774 5.97245 4.05609 6.40499 5.43096C6.11663 6.51639 5.75618 7.67418 5.10737 8.90433C4.74692 9.70031 4.31438 10.4239 4.02602 11.0028C3.59348 11.2199 3.23303 11.437 3.01676 11.5817C1.64705 12.4501 0.926145 13.4631 0.854055 14.042C0.781965 14.2591 0.781965 14.4762 0.854055 14.6209V14.6933L1.43078 15.0551C1.57496 15.1274 1.79123 15.1998 1.93541 15.1998C2.87258 15.1998 3.95393 14.1144 5.39573 11.5817C5.46782 11.5817 5.53991 11.5094 5.612 11.5094C6.83753 11.1475 8.27934 10.8581 10.2979 10.641C11.4513 11.2199 12.8931 11.5094 13.7582 11.5094C14.2628 11.5094 14.6233 11.3646 14.8395 11.1475C15.0558 10.9305 15.1279 10.641 15.2 10.3516C15.2 10.1345 15.2 9.91739 15.0558 9.77267ZM1.79123 14.4038C1.86332 13.9697 2.36795 13.1737 3.23303 12.4501C3.37721 12.3777 3.52139 12.233 3.80975 12.0882C2.94467 13.4631 2.29586 14.1867 1.79123 14.4038ZM7.1259 1.59578C7.19799 1.52342 7.19799 1.45106 7.27008 1.45106L7.41426 1.52342C7.63053 1.81287 7.63053 2.17468 7.48635 2.82594V3.04302C7.41426 3.33247 7.41426 3.62192 7.27008 3.98372C6.98172 2.8983 6.98172 2.10232 7.1259 1.59578ZM5.68409 10.7134L5.53991 10.7857C5.612 10.4239 5.90036 9.98975 6.11663 9.55558C6.62126 8.54252 7.05381 7.60182 7.27008 6.73347C7.77471 7.8189 8.35143 8.61488 9.07233 9.26614C9.21651 9.41086 9.36069 9.55558 9.57696 9.62795C8.5677 9.77267 7.19799 10.1345 5.68409 10.7134ZM14.407 10.641H14.1186C13.614 10.641 12.7489 10.4239 11.8838 10.0621C11.9559 9.91739 12.1001 9.91739 12.1722 9.91739C13.8303 9.91739 14.2628 10.2068 14.407 10.3516C14.4791 10.4239 14.4791 10.4239 14.4791 10.4963C14.4791 10.5686 14.4791 10.5686 14.407 10.641Z"
    fill="#1C1C1C"
    />
    <path
    d="M15.0558 9.77267L11.6602 11.8869L11.9008 12.2733L12.2221 12.5958L15.0558 9.77267ZM10.8746 9.04905L8.8109 12.4756L10.0317 13.2108L11.4424 13.0085L10.8746 9.04905ZM9.86532 8.3978L7.36081 11.5167L7.40958 11.5558L7.45954 11.5935L9.86532 8.3978ZM7.99098 5.43096L3.99098 5.43095L3.99097 6.17873L4.26112 6.87601L7.99098 5.43096ZM8.06307 5.28624L10.8968 8.10934L11.6943 7.30885L11.9551 6.20943L8.06307 5.28624ZM8.06307 1.08925L11.0279 -1.59589L10.964 -1.66643L10.8968 -1.73385L8.06307 1.08925ZM6.11663 1.66815L2.32048 0.407512L2.29317 0.489742L2.26945 0.573078L6.11663 1.66815ZM6.40499 5.43096L10.2709 6.458L10.5687 5.33698L10.2206 4.23055L6.40499 5.43096ZM5.10737 8.90433L1.56932 7.03827L1.51319 7.14468L1.46357 7.25427L5.10737 8.90433ZM4.02602 11.0028L5.82026 14.5778L7.01193 13.9798L7.60641 12.7863L4.02602 11.0028ZM3.01676 11.5817L5.15848 14.96L5.20024 14.9336L5.24134 14.9061L3.01676 11.5817ZM0.854055 14.042L4.65021 15.3026L4.77462 14.928L4.8234 14.5363L0.854055 14.042ZM0.854055 14.6209H4.85406V13.6798L4.43445 12.8374L0.854055 14.6209ZM0.854055 14.6933H-3.14594V16.9058L-1.27168 18.0817L0.854055 14.6933ZM1.43078 15.0551L-0.694957 18.4435L-0.533653 18.5447L-0.363465 18.6301L1.43078 15.0551ZM5.39573 11.5817V7.58171H3.07011L1.91955 9.60278L5.39573 11.5817ZM5.612 11.5094V15.5094H6.19012L6.74458 15.3457L5.612 11.5094ZM10.2979 10.641L12.0921 7.066L11.0403 6.5381L9.87014 6.66394L10.2979 10.641ZM15.2 10.3516L19.0814 11.3183L19.2 10.8422V10.3516H15.2ZM1.79123 14.4038L-2.15475 13.7486L-3.35407 20.9717L3.37192 18.0783L1.79123 14.4038ZM3.23303 12.4501L1.43879 8.87505L1.02324 9.0836L0.666609 9.38192L3.23303 12.4501ZM3.80975 12.0882L7.19533 14.2185L14.8326 2.08053L2.01551 8.51324L3.80975 12.0882ZM7.1259 1.59578L4.29215 -1.22732L3.56195 -0.494365L3.27871 0.500716L7.1259 1.59578ZM7.27008 1.45106L9.06432 -2.12395L8.21753 -2.54894H7.27008V1.45106ZM7.41426 1.52342L10.6186 -0.870798L10.053 -1.62774L9.2085 -2.05159L7.41426 1.52342ZM7.48635 2.82594L3.58091 1.96132L3.48635 2.38846V2.82594H7.48635ZM7.48635 3.04302L11.3678 4.00973L11.4863 3.53365V3.04302H7.48635ZM7.27008 3.98372L3.40417 5.01076L6.50919 16.6984L10.9859 5.46448L7.27008 3.98372ZM5.68409 10.7134L4.25543 6.97721L4.06862 7.04864L3.88986 7.13836L5.68409 10.7134ZM5.53991 10.7857L1.61702 10.0041L0.0172876 18.0329L7.33414 14.3608L5.53991 10.7857ZM6.11663 9.55558L2.53624 7.77211L6.11663 9.55558ZM7.27008 6.73347L10.8972 5.04715L6.12463 -5.21841L3.38865 5.76676L7.27008 6.73347ZM9.07233 9.26614L11.9061 6.44304L11.8318 6.3685L11.7537 6.29797L9.07233 9.26614ZM9.57696 9.62795L10.1447 13.5874L10.8462 5.83465L9.57696 9.62795ZM14.407 10.641V14.641H16.0683L17.2407 13.4641L14.407 10.641ZM11.8838 10.0621L8.30345 8.27864L6.39817 12.1036L10.3404 13.7524L11.8838 10.0621ZM14.407 10.3516L17.2407 7.52846L14.407 10.3516ZM18.4514 7.65841C17.5714 6.24509 16.246 5.60386 15.2304 5.31259C14.2585 5.03387 13.2471 4.97669 12.3885 4.97669V12.9767C12.6545 12.9767 12.8386 12.987 12.9587 12.9992C13.0828 13.0118 13.0922 13.0219 13.0249 13.0026C12.9576 12.9833 12.7505 12.9167 12.4877 12.7434C12.2071 12.5584 11.9032 12.2771 11.6602 11.8869L18.4514 7.65841ZM12.3885 4.97669C11.9299 4.97669 11.1403 4.97004 10.3068 5.08955L11.4424 13.0085C11.6181 12.9833 11.8378 12.9767 12.3885 12.9767V4.97669ZM12.9383 5.6225C12.5281 5.37551 12.3611 5.26989 12.2711 5.20214L7.45954 11.5935C7.94627 11.9599 8.50012 12.2884 8.8109 12.4756L12.9383 5.6225ZM12.3698 5.27891C12.4742 5.36273 12.4111 5.34201 12.2426 5.07147C12.0871 4.82164 11.9041 4.45882 11.7208 3.98591L4.26112 6.87601C4.8495 8.3947 5.81379 10.2744 7.36081 11.5167L12.3698 5.27891ZM7.99098 5.43096C11.991 5.43097 11.991 5.43292 11.991 5.43487C11.991 5.43552 11.991 5.43747 11.991 5.43877C11.991 5.44137 11.991 5.44398 11.9909 5.44659C11.9909 5.45181 11.9909 5.45704 11.9909 5.4623C11.9908 5.4728 11.9906 5.48337 11.9905 5.49401C11.9901 5.51528 11.9896 5.53682 11.9889 5.55862C11.9875 5.60222 11.9854 5.64697 11.9823 5.6928C11.9762 5.78434 11.9666 5.88104 11.9522 5.98214C11.9235 6.18363 11.8752 6.40816 11.7961 6.64638C11.6334 7.13644 11.3483 7.65612 10.8968 8.10934L5.22933 2.46313C4.70571 2.98872 4.3846 3.58076 4.20383 4.12509C4.11572 4.39044 4.06294 4.63758 4.03201 4.85491C4.01649 4.96392 4.00627 5.06684 3.99991 5.16262C3.99673 5.21057 3.9945 5.25695 3.99306 5.30164C3.99234 5.32399 3.99182 5.34595 3.99148 5.36749C3.99131 5.37827 3.99118 5.38894 3.9911 5.39952C3.99106 5.40481 3.99103 5.41007 3.99101 5.41531C3.991 5.41793 3.99099 5.42054 3.99098 5.42315C3.99098 5.42445 3.99098 5.4264 3.99098 5.42705C3.99098 5.429 3.99098 5.43095 7.99098 5.43096ZM11.9551 6.20943C12.1388 5.43488 12.3941 4.29002 12.4616 3.15317C12.5134 2.27933 12.567 0.103532 11.0279 -1.59589L5.09828 3.7744C4.63801 3.2662 4.52085 2.77899 4.49446 2.64605C4.46698 2.50764 4.48643 2.49672 4.47559 2.6796C4.46574 2.84572 4.4369 3.0786 4.38109 3.38546C4.32611 3.68769 4.2542 4.01256 4.17106 4.36305L11.9551 6.20943ZM10.8968 -1.73385C10.4594 -2.17292 9.89138 -2.59005 9.17028 -2.86845C8.46666 -3.14009 7.8217 -3.2002 7.34217 -3.2002V4.7998C7.151 4.7998 6.75834 4.77588 6.28902 4.59469C5.80222 4.40675 5.45048 4.13434 5.22933 3.91235L10.8968 -1.73385ZM7.34217 -3.2002H7.05381V4.7998H7.34217V-3.2002ZM7.05381 -3.2002C5.44223 -3.2002 4.28403 -2.39504 3.64334 -1.75194C2.99357 -1.09972 2.56432 -0.32678 2.32048 0.407512L9.91279 2.92878C9.81312 3.2289 9.63619 3.56767 9.31082 3.89427C8.99454 4.21174 8.23284 4.7998 7.05381 4.7998V-3.2002ZM2.26945 0.573078C1.91913 1.8038 1.82307 2.94178 1.96707 4.09813C2.09322 5.11116 2.4055 6.04695 2.58937 6.63137L10.2206 4.23055C10.1035 3.85834 10.0324 3.63277 9.97669 3.4279C9.92592 3.24102 9.91094 3.15117 9.90575 3.10952C9.90197 3.07921 9.90206 3.06545 9.90388 3.04416C9.9062 3.01696 9.91587 2.93165 9.96382 2.76321L2.26945 0.573078ZM2.53909 4.40392C2.28352 5.36594 2.01485 6.19354 1.56932 7.03827L8.64543 10.7704C9.49752 9.15481 9.94975 7.66684 10.2709 6.458L2.53909 4.40392ZM1.46357 7.25427C1.08931 8.08075 0.980448 8.14567 0.445627 9.21935L7.60641 12.7863C7.64831 12.7022 8.40453 11.3199 8.75118 10.5544L1.46357 7.25427ZM2.23178 7.42781C1.65563 7.71697 1.15104 8.01723 0.792179 8.25737L5.24134 14.9061C5.31502 14.8568 5.53133 14.7228 5.82026 14.5778L2.23178 7.42781ZM0.875041 8.20339C-0.124799 8.83725 -0.973982 9.57659 -1.62882 10.3654C-2.18783 11.0387 -2.94124 12.1501 -3.11528 13.5477L4.8234 14.5363C4.7917 14.7909 4.73566 14.9861 4.69237 15.1115C4.64789 15.2403 4.60409 15.3321 4.57596 15.386C4.52195 15.4895 4.49322 15.5154 4.52641 15.4755C4.59248 15.3959 4.7886 15.1945 5.15848 14.96L0.875041 8.20339ZM-2.9421 12.7814C-3.2078 13.5815 -3.43609 14.9795 -2.72634 16.4044L4.43445 12.8374C4.74189 13.4546 4.79999 14.0108 4.79999 14.3586C4.79999 14.7279 4.73583 15.0448 4.65021 15.3026L-2.9421 12.7814ZM-3.14594 14.6209V14.6933H4.85406V14.6209H-3.14594ZM-1.27168 18.0817L-0.694957 18.4435L3.55651 11.6667L2.97979 11.3049L-1.27168 18.0817ZM-0.363465 18.6301C0.00708395 18.8161 0.881525 19.1998 1.93541 19.1998V11.1998C2.21356 11.1998 2.4269 11.2325 2.5433 11.254C2.67036 11.2775 2.76939 11.3043 2.83646 11.3245C2.95877 11.3613 3.08376 11.4092 3.22502 11.4801L-0.363465 18.6301ZM1.93541 19.1998C4.01467 19.1998 5.49885 18.0044 6.35383 17.119C7.26508 16.1753 8.09022 14.9338 8.87191 13.5606L1.91955 9.60278C1.60208 10.1604 1.32846 10.5958 1.09572 10.9302C0.859648 11.2693 0.693718 11.4638 0.598834 11.562C0.497425 11.667 0.539616 11.5971 0.733673 11.4898C0.949731 11.3704 1.36722 11.1998 1.93541 11.1998V19.1998ZM5.39573 15.5817C5.73959 15.5817 6.03908 15.5386 6.28063 15.4855C6.51989 15.433 6.71663 15.3675 6.85894 15.314C7.00066 15.2606 7.11305 15.2096 7.17981 15.1782C7.21456 15.1618 7.24325 15.1478 7.2621 15.1385C7.27976 15.1298 7.29551 15.1218 7.29811 15.1205C7.30452 15.1173 7.29778 15.1207 7.28913 15.125C7.2793 15.1299 7.25961 15.1395 7.23388 15.1516C7.18514 15.1746 7.09077 15.2177 6.96707 15.2642C6.84279 15.311 6.66407 15.3708 6.44283 15.4194C6.2193 15.4685 5.93784 15.5094 5.612 15.5094V7.50935C5.26815 7.50935 4.96866 7.5525 4.7271 7.60554C4.48784 7.65807 4.2911 7.72352 4.1488 7.77709C4.00708 7.83043 3.89469 7.88146 3.82792 7.91288C3.79318 7.92922 3.76448 7.94326 3.74564 7.95257C3.72798 7.9613 3.71223 7.96922 3.70962 7.97053C3.70322 7.97374 3.70995 7.97034 3.7186 7.96607C3.72844 7.96121 3.74812 7.95155 3.77385 7.93945C3.8226 7.91651 3.91697 7.8734 4.04066 7.82684C4.16494 7.78005 4.34366 7.72026 4.5649 7.67168C4.78843 7.6226 5.0699 7.58171 5.39573 7.58171V15.5817ZM6.74458 15.3457C7.68971 15.0666 8.88743 14.8158 10.7256 14.6181L9.87014 6.66394C7.67124 6.90043 5.98536 7.22845 4.47942 7.67304L6.74458 15.3457ZM8.50362 14.216C10.217 15.076 12.2736 15.5094 13.7582 15.5094V7.50935C13.7594 7.50935 13.7399 7.50932 13.6984 7.5063C13.6577 7.50335 13.6036 7.49809 13.5368 7.4893C13.4015 7.47149 13.2368 7.44217 13.0556 7.39937C12.6762 7.30977 12.3332 7.18701 12.0921 7.066L8.50362 14.216ZM13.7582 15.5094C14.9826 15.5094 16.4944 15.1539 17.6733 13.9706L12.0058 8.32444C12.7521 7.57532 13.543 7.50935 13.7582 7.50935V15.5094ZM17.6733 13.9706C18.7965 12.8431 19.0576 11.4137 19.0814 11.3183L11.3186 9.38485C11.2978 9.4683 11.2955 9.47587 11.2965 9.47245C11.2994 9.46235 11.3188 9.39442 11.358 9.29593C11.4408 9.08824 11.6274 8.70422 12.0058 8.32444L17.6733 13.9706ZM19.2 10.3516C19.2 10.3232 19.2118 9.84015 19.1179 9.32204C19.0094 8.72276 18.7172 7.78033 17.8895 6.94957L12.2221 12.5958C11.5386 11.9097 11.3185 11.1482 11.246 10.7479C11.1882 10.4288 11.2 10.1628 11.2 10.3516H19.2ZM5.7372 15.059C5.70202 15.2709 5.65338 15.432 5.61868 15.5323C5.58267 15.6365 5.54894 15.7117 5.52742 15.7562C5.48604 15.842 5.46293 15.87 5.47958 15.8465C5.51357 15.7985 5.61759 15.6703 5.79945 15.5182L0.666609 9.38192C-0.0166088 9.95341 -0.597447 10.585 -1.05007 11.2244C-1.43014 11.7614 -1.97328 12.6557 -2.15475 13.7486L5.7372 15.059ZM5.02727 16.0251C5.29025 15.8931 5.49151 15.7597 5.59044 15.6926C5.64335 15.6566 5.68921 15.6242 5.71449 15.6063C5.74992 15.5812 5.75184 15.5798 5.76697 15.5691C5.78385 15.5573 5.7105 15.6098 5.60399 15.6633L2.01551 8.51324C1.62064 8.71141 1.33102 8.90866 1.16768 9.02343C1.13775 9.04445 1.09686 9.07352 1.09118 9.07754C1.07535 9.08876 1.08179 9.08405 1.09639 9.07414C1.11873 9.05897 1.2479 8.97085 1.43879 8.87505L5.02727 16.0251ZM0.424174 9.95802C0.0498321 10.553 -0.201616 10.8828 -0.341043 11.0417C-0.407066 11.1169 -0.409186 11.109 -0.347308 11.058C-0.291103 11.0116 -0.104469 10.8649 0.210537 10.7294L3.37192 18.0783C4.43655 17.6203 5.19699 16.8596 5.67168 16.3187C6.19909 15.7178 6.70459 14.9984 7.19533 14.2185L0.424174 9.95802ZM9.95964 4.41889C10.2186 4.15892 10.3947 3.91538 10.5007 3.75567C10.5484 3.68388 10.5857 3.62293 10.5901 3.61576C10.6073 3.58779 10.5718 3.64645 10.53 3.70931C10.4613 3.81279 10.1378 4.30716 9.52691 4.73636C8.80313 5.24492 7.99655 5.45106 7.27008 5.45106V-2.54894C6.50755 -2.54894 5.67395 -2.33376 4.92763 -1.80937C4.29425 -1.36433 3.95269 -0.847355 3.86594 -0.716733C3.83638 -0.672234 3.81323 -0.635559 3.80021 -0.614736C3.7934 -0.603858 3.7878 -0.594807 3.7844 -0.589298C3.78265 -0.586467 3.78115 -0.584035 3.78019 -0.582471C3.7797 -0.58168 3.77925 -0.580947 3.77895 -0.580464C3.7786 -0.5799 3.77844 -0.579633 3.77828 -0.57937C3.77312 -0.570997 3.80024 -0.615552 3.83665 -0.670378C3.9202 -0.796169 4.06921 -1.00353 4.29215 -1.22732L9.95964 4.41889ZM5.47583 5.02607L5.62002 5.09843L9.2085 -2.05159L9.06432 -2.12395L5.47583 5.02607ZM4.20993 3.91764C4.01541 3.6573 3.85218 3.35326 3.74088 3.0181C3.63274 2.69247 3.59781 2.41048 3.58922 2.2121C3.57494 1.88246 3.63414 1.72087 3.58091 1.96132L11.3918 3.69055C11.5355 3.04133 12.0123 0.994487 10.6186 -0.870798L4.20993 3.91764ZM3.48635 2.82594V3.04302H11.4863V2.82594H3.48635ZM3.60492 2.07631C3.55048 2.29491 3.51711 2.48338 3.49808 2.59624C3.48896 2.65034 3.47986 2.70723 3.47552 2.73413C3.46992 2.76873 3.46738 2.78386 3.46566 2.79363C3.46241 2.81215 3.48457 2.67784 3.55425 2.50297L10.9859 5.46448C11.1998 4.9278 11.294 4.46786 11.3448 4.17885C11.3566 4.11173 11.3665 4.05111 11.373 4.0108C11.3808 3.9628 11.3835 3.94562 11.3868 3.92623C11.3925 3.89211 11.3862 3.93585 11.3678 4.00973L3.60492 2.07631ZM11.136 2.95669C11.0524 2.6421 11.0347 2.45778 11.0317 2.39172C11.0303 2.3605 11.0328 2.37012 11.0284 2.41558C11.0242 2.45962 11.0116 2.55552 10.9731 2.69085L3.27871 0.500716C2.86354 1.9593 3.01518 3.54652 3.40417 5.01076L11.136 2.95669ZM3.88986 7.13836L3.74568 7.21072L7.33414 14.3608L7.47832 14.2884L3.88986 7.13836ZM9.4628 11.5674C9.43727 11.6955 9.40805 11.7979 9.38491 11.87C9.36166 11.9424 9.34079 11.9957 9.32812 12.0264C9.30549 12.0813 9.29579 12.0957 9.32339 12.0426C9.33557 12.0192 9.35168 11.9889 9.37486 11.9461C9.40051 11.8988 9.422 11.8597 9.45721 11.7951C9.51763 11.6843 9.60716 11.5195 9.69703 11.3391L2.53624 7.77211C2.51797 7.80878 2.49035 7.86103 2.43363 7.96506C2.38808 8.04857 2.30272 8.20351 2.22502 8.353C2.14449 8.50793 2.03566 8.72582 1.93193 8.97744C1.83012 9.22442 1.70191 9.5781 1.61702 10.0041L9.4628 11.5674ZM9.69703 11.3391C10.1991 10.3312 10.818 9.03932 11.1515 7.70019L3.38865 5.76676C3.28964 6.16431 3.04346 6.75384 2.53624 7.77211L9.69703 11.3391ZM3.64291 8.4198C4.33767 9.91416 5.2132 11.1704 6.39091 12.2343L11.7537 6.29797C11.4897 6.0594 11.2117 5.72364 10.8972 5.04715L3.64291 8.4198ZM6.23859 12.0892C6.31072 12.1616 7.07008 13.0071 8.30776 13.4212L10.8462 5.83465C11.2654 5.97493 11.5721 6.17528 11.7591 6.32125C11.9068 6.43655 12.0068 6.54417 11.9061 6.44304L6.23859 12.0892ZM9.00918 5.66845C7.63332 5.86574 5.96946 6.32178 4.25543 6.97721L7.11276 14.4495C8.42651 13.9472 9.50208 13.6796 10.1447 13.5874L9.00918 5.66845ZM14.407 6.64101H14.1186V14.641H14.407V6.64101ZM14.1186 6.64101C14.2599 6.64101 14.3278 6.65443 14.2988 6.64988C14.28 6.64693 14.2239 6.63672 14.1312 6.61293C13.9428 6.56455 13.6934 6.4832 13.4272 6.37187L10.3404 13.7524C11.3916 14.192 12.8329 14.641 14.1186 14.641V6.64101ZM15.4642 11.8456C14.9569 12.864 14.0901 13.4635 13.2972 13.7288C12.6595 13.9422 12.105 13.9174 12.1722 13.9174V5.91739C12.1673 5.91739 11.5047 5.89263 10.7588 6.14218C9.85781 6.44365 8.88283 7.11552 8.30345 8.27864L15.4642 11.8456ZM12.1722 13.9174C12.8032 13.9174 12.9412 13.9763 12.81 13.9407C12.7303 13.919 12.5467 13.8613 12.3092 13.7312C12.0511 13.5899 11.7995 13.4018 11.5733 13.1747L17.2407 7.52846C15.904 6.18665 14.0374 5.91739 12.1722 5.91739V13.9174ZM11.5733 13.1747C11.6215 13.2231 11.5471 13.1502 11.4705 13.0648C11.3861 12.9707 11.1196 12.6689 10.8897 12.2075C10.626 11.6782 10.5316 11.1902 10.4977 10.8499C10.4746 10.6187 10.4791 10.4044 10.4791 10.4963H18.4791C18.4791 10.4938 18.4791 10.4803 18.479 10.4659C18.479 10.4507 18.4788 10.4245 18.4782 10.3926C18.477 10.335 18.4736 10.2113 18.4583 10.0568C18.4221 9.69383 18.3231 9.18779 18.0504 8.6404C17.8116 8.16089 17.5315 7.84093 17.4268 7.72421C17.3671 7.65765 17.3166 7.60556 17.2929 7.58124C17.269 7.55677 17.2456 7.53334 17.2407 7.52846L11.5733 13.1747ZM10.4791 10.4963C10.4791 10.5881 10.4746 10.3739 10.4977 10.1427C10.5316 9.80239 10.626 9.31445 10.8897 8.78516C11.1195 8.32374 11.3861 8.02187 11.4705 7.92775C11.5471 7.84236 11.6215 7.76948 11.5733 7.81791L17.2407 13.4641C17.2456 13.4592 17.269 13.4358 17.2929 13.4113C17.3166 13.387 17.3672 13.3349 17.4268 13.2683C17.5315 13.1516 17.8116 12.8316 18.0505 12.3521C18.3231 11.8048 18.4221 11.2987 18.4583 10.9358C18.4736 10.7813 18.477 10.6576 18.4782 10.6C18.4788 10.5681 18.479 10.5418 18.479 10.5267C18.4791 10.5122 18.4791 10.4988 18.4791 10.4963H10.4791Z"
    fill="#0052CC"
    mask="url(#path-1-inside-1_2235_2345)"
    />
</svg>