<svg width="24" height="20" viewBox="0 0 24 20" fill="none" xmlns="http://www.w3.org/2000/svg">
<path d="M9.76078 1.59961L1.92078 1.59961C1.62374 1.59961 1.33886 1.71761 1.12882 1.92765C0.918781 2.13769 0.800781 2.42257 0.800781 2.71961L0.800781 17.2796C0.800781 17.5767 0.918781 17.8615 1.12882 18.0716C1.33886 18.2816 1.62374 18.3996 1.92078 18.3996H22.0808C22.3778 18.3996 22.6627 18.2816 22.8727 18.0716C23.0828 17.8615 23.2008 17.5767 23.2008 17.2796V15.8796" stroke="currentColor" stroke-width="1.5" stroke-linecap="round" stroke-linejoin="round"/>
<path d="M4.16016 8.87891H8.64016M4.16016 13.3589H17.6002" stroke="currentColor" stroke-width="1.5" stroke-linecap="round"/>
<path d="M17.6002 8.31961C19.4559 8.31961 20.9602 6.81529 20.9602 4.95961C20.9602 3.10393 19.4559 1.59961 17.6002 1.59961C15.7446 1.59961 14.2402 3.10393 14.2402 4.95961C14.2402 6.81529 15.7446 8.31961 17.6002 8.31961Z" stroke="currentColor" stroke-width="1.5" stroke-linecap="round" stroke-linejoin="round"/>
<path d="M23.2017 11.915C22.1081 9.77743 19.8417 8.32031 17.6017 8.32031C15.3617 8.32031 14.2457 8.95479 13.0938 10.0003" stroke="currentColor" stroke-width="1.5" stroke-linecap="round" stroke-linejoin="round"/>
</svg>
