<svg width="16" height="16" viewBox="0 0 16 16" fill="none" xmlns="http://www.w3.org/2000/svg">
<path d="M15.2 10.7998L11.2 6.79976L3.19999 14.7998M2.23999 0.799805H13.76C14.552 0.799805 15.2 1.6098 15.2 2.5998V13.3998C15.2 14.3898 14.552 15.1998 13.76 15.1998H2.23999C1.44799 15.1998 0.799988 14.3898 0.799988 13.3998V2.5998C0.799988 1.6098 1.44799 0.799805 2.23999 0.799805ZM6.79999 4.9998C6.79999 5.99392 5.9941 6.7998 4.99999 6.7998C4.00588 6.7998 3.19999 5.99392 3.19999 4.9998C3.19999 4.00569 4.00588 3.1998 4.99999 3.1998C5.9941 3.1998 6.79999 4.00569 6.79999 4.9998Z" stroke="#0052CC" stroke-linecap="round" stroke-linejoin="round"/>
</svg>
